<svg xmlns="http://www.w3.org/2000/svg" viewBox="0 0 100 100">
  <!-- Outer petals (yellow) -->
  <g fill="#FFD700">
    <!-- Top petal -->
    <ellipse cx="50" cy="15" rx="8" ry="18" transform="rotate(0 50 50)"/>
    <!-- Top-right petal -->
    <ellipse cx="50" cy="15" rx="8" ry="18" transform="rotate(45 50 50)"/>
    <!-- Right petal -->
    <ellipse cx="50" cy="15" rx="8" ry="18" transform="rotate(90 50 50)"/>
    <!-- Bottom-right petal -->
    <ellipse cx="50" cy="15" rx="8" ry="18" transform="rotate(135 50 50)"/>
    <!-- Bottom petal -->
    <ellipse cx="50" cy="15" rx="8" ry="18" transform="rotate(180 50 50)"/>
    <!-- Bottom-left petal -->
    <ellipse cx="50" cy="15" rx="8" ry="18" transform="rotate(225 50 50)"/>
    <!-- Left petal -->
    <ellipse cx="50" cy="15" rx="8" ry="18" transform="rotate(270 50 50)"/>
    <!-- Top-left petal -->
    <ellipse cx="50" cy="15" rx="8" ry="18" transform="rotate(315 50 50)"/>
  </g>
  
  <!-- Inner petals (lighter yellow) -->
  <g fill="#FFA500">
    <ellipse cx="50" cy="22" rx="6" ry="12" transform="rotate(22.5 50 50)"/>
    <ellipse cx="50" cy="22" rx="6" ry="12" transform="rotate(67.5 50 50)"/>
    <ellipse cx="50" cy="22" rx="6" ry="12" transform="rotate(112.5 50 50)"/>
    <ellipse cx="50" cy="22" rx="6" ry="12" transform="rotate(157.5 50 50)"/>
    <ellipse cx="50" cy="22" rx="6" ry="12" transform="rotate(202.5 50 50)"/>
    <ellipse cx="50" cy="22" rx="6" ry="12" transform="rotate(247.5 50 50)"/>
    <ellipse cx="50" cy="22" rx="6" ry="12" transform="rotate(292.5 50 50)"/>
    <ellipse cx="50" cy="22" rx="6" ry="12" transform="rotate(337.5 50 50)"/>
  </g>
  
  <!-- Center (dark brown) -->
  <circle cx="50" cy="50" r="16" fill="#8B4513"/>
  
  <!-- Seeds pattern in center -->
  <g fill="#654321">
    <circle cx="45" cy="45" r="2"/>
    <circle cx="55" cy="45" r="2"/>
    <circle cx="45" cy="55" r="2"/>
    <circle cx="55" cy="55" r="2"/>
    <circle cx="50" cy="50" r="2"/>
    <circle cx="42" cy="50" r="1.5"/>
    <circle cx="58" cy="50" r="1.5"/>
    <circle cx="50" cy="42" r="1.5"/>
    <circle cx="50" cy="58" r="1.5"/>
    <circle cx="47" cy="47" r="1.5"/>
    <circle cx="53" cy="47" r="1.5"/>
    <circle cx="47" cy="53" r="1.5"/>
    <circle cx="53" cy="53" r="1.5"/>
  </g>
</svg>
